<?xml version="1.0" encoding="UTF-8"?>
<svg id="Layer_2" data-name="Layer 2" xmlns="http://www.w3.org/2000/svg" viewBox="0 0 659.48 205.13">
  <defs>
    <style>
      .cls-1 {
        fill: #f3f3f3;
      }

      .cls-2 {
        fill: #d1bd7b;
      }
    </style>
  </defs>
  <g id="Layer_1-2" data-name="Layer 1">
    <g>
      <g>
        <polygon class="cls-1" points="167.86 174.03 198.58 174.03 198.58 142.45 235.23 142.45 235.23 116.51 198.58 116.51 198.58 100.28 239 100.28 239 72.61 167.86 72.61 167.86 174.03"/>
        <rect class="cls-1" x="248.28" y="72.61" width="30.72" height="101.43"/>
        <path class="cls-1" d="M292.32,90.29c0,5.12,.7,9.85,2.1,14.2,1.4,4.35,3.31,8.16,5.72,11.45,1.44,1.96,3.01,3.7,4.69,5.21-3.43,1.33-6.2,3.57-8.32,6.74-2.8,4.2-4.2,9.11-4.2,14.71v31.44h76.5v-27.67h-45.79v-5.94c0-1.74,.58-3.31,1.74-4.71,1.16-1.4,2.7-2.1,4.64-2.1h38.25v-21.3h-31.44c-4.64,0-7.99-.92-10.07-2.75-2.08-1.83-3.12-4.49-3.12-7.97v-1.3h45.93v-27.67h-76.65v17.68Z"/>
        <path class="cls-1" d="M461.7,129.77c4.64-5.36,6.96-12.63,6.96-21.81v-.72c0-11.3-2.95-19.9-8.84-25.79-5.89-5.89-14.34-8.84-25.36-8.84h-54.63v101.43h30.72v-30.14h14.11l18.79,30.14h35.06l-24.26-38.18c2.81-1.56,5.29-3.59,7.45-6.08Zm-25.65-20.5c0,2.71-.92,4.88-2.75,6.52-1.84,1.64-4.4,2.46-7.68,2.46h-15.07v-17.97h14.78c3.28,0,5.89,.77,7.82,2.32,1.93,1.55,2.9,3.67,2.9,6.38v.29Z"/>
        <path class="cls-1" d="M513,109.19c1.06-3.43,2.7-5.96,4.93-7.61,2.22-1.64,5.17-2.46,8.84-2.46h.58c2.51,0,4.64,.56,6.37,1.67,1.74,1.11,3.19,2.83,4.35,5.14,1.16,2.32,2.03,5.22,2.61,8.69l30.86-5.65c-1.55-13.04-6.16-22.75-13.84-29.12-7.68-6.37-17.27-9.56-28.76-9.56h-1.74c-16.33,0-28.33,4.32-36.01,12.97-7.68,8.65-11.52,21.66-11.52,39.05v2.61c0,11.3,1.67,20.77,5,28.4,3.33,7.63,8.48,13.38,15.43,17.24,6.96,3.86,15.79,5.8,26.52,5.8h1.16c11.4,0,20.98-2.95,28.76-8.84,7.77-5.89,12.63-15.16,14.56-27.82l-30.72-5.51c-.87,4.54-2.37,7.9-4.49,10.07-2.13,2.17-4.88,3.26-8.26,3.26h-.58c-3.86,0-6.93-.84-9.2-2.54-2.27-1.69-3.91-4.25-4.93-7.68-1.01-3.43-1.52-7.9-1.52-13.4v-1.3c0-5.51,.53-9.97,1.59-13.4Z"/>
        <path class="cls-1" d="M659.48,100.28v-27.67h-76.65v17.68c0,5.12,.7,9.85,2.1,14.2,1.4,4.35,3.31,8.16,5.72,11.45,1.44,1.96,3.01,3.7,4.69,5.21-3.43,1.33-6.2,3.57-8.32,6.74-2.8,4.2-4.2,9.11-4.2,14.71v31.44h76.5v-27.67h-45.79v-5.94c0-1.74,.58-3.31,1.74-4.71,1.16-1.4,2.7-2.1,4.64-2.1h38.25v-21.3h-31.44c-4.64,0-7.99-.92-10.07-2.75-2.08-1.83-3.12-4.49-3.12-7.97v-1.3h45.93Z"/>
      </g>
      <g>
        <polygon class="cls-2" points="189.7 49.29 181.98 30.91 167.86 30.91 167.86 63.54 177.74 63.54 177.74 43.72 185.76 63.54 193.27 63.54 202.22 42.21 202.22 63.54 212.1 63.54 212.1 30.91 197.37 30.91 189.7 49.29"/>
        <path class="cls-2" d="M233.87,53.96c-.68,.7-1.57,1.05-2.66,1.05h-.19c-1.24,0-2.23-.27-2.96-.82-.73-.54-1.26-1.37-1.59-2.47-.33-1.1-.49-2.54-.49-4.31v-.42c0-1.77,.17-3.21,.51-4.31,.34-1.1,.87-1.92,1.59-2.45,.72-.53,1.66-.79,2.84-.79h.19c.81,0,1.49,.18,2.05,.54,.56,.36,1.03,.91,1.4,1.65,.37,.75,.65,1.68,.84,2.8l9.93-1.82c-.5-4.2-1.98-7.32-4.45-9.37-2.47-2.05-5.56-3.08-9.25-3.08h-.56c-5.25,0-9.11,1.39-11.59,4.17-2.47,2.78-3.71,6.97-3.71,12.56v.84c0,3.64,.54,6.68,1.61,9.14,1.07,2.46,2.73,4.3,4.97,5.55,2.24,1.24,5.08,1.86,8.53,1.86h.37c3.67,0,6.75-.95,9.25-2.84,2.5-1.9,4.06-4.88,4.69-8.95l-9.88-1.77c-.28,1.46-.76,2.54-1.45,3.24Z"/>
      </g>
      <polygon class="cls-2" points="139.09 105.97 139.09 143.67 135.77 141.76 128.21 137.39 120.64 141.76 117.32 143.67 109.76 148.04 109.76 181.91 98.88 188.19 91.31 192.56 87.99 194.48 87.99 101.61 98.87 95.33 106.44 90.96 109.76 89.04 109.76 122.9 117.32 118.54 128.2 112.26 135.76 107.89 139.09 105.97"/>
      <polygon class="cls-2" points="51.09 101.61 51.09 194.47 47.78 192.56 40.22 188.2 29.33 181.91 29.33 148.04 21.77 143.67 18.45 141.76 10.88 137.39 3.32 141.76 0 143.67 0 105.97 3.32 107.89 10.88 112.26 21.77 118.54 29.33 122.9 29.33 89.04 32.65 90.96 40.22 95.33 51.09 101.61"/>
      <path class="cls-1" d="M135.77,40.16l-7.57,4.37-10.88,6.28-7.57,4.37-3.32,1.92-7.56,4.36-10.89,6.29-7.56,4.36V29.51l7.56-4.37V0l-7.56,4.37-3.32,1.92h0l-7.55,4.36-7.57-4.36-3.32-1.93L51.09,0V25.14l7.56,4.37v42.6l-7.56-4.36-10.88-6.28-7.57-4.36-3.31-1.92-7.57-4.37-10.88-6.29-7.57-4.37-3.32-1.92v37.7l3.32-1.92,7.57-4.36,7.56,4.36,3.32,1.92,7.57,4.37,10.88,6.28,7.57,4.37,3.31,1.91,7.56,4.36v101.6l10.89,6.29,10.89-6.28V97.24l7.56-4.36,3.32-1.91,7.56-4.37,10.89-6.28,7.57-4.38,3.32-1.91,7.56-4.36,7.56,4.36,3.32,1.92V38.24l-3.31,1.92Zm-65.08,126.78h-2.31v-60.57h2.31v60.57Z"/>
    </g>
  </g>
</svg>